<?xml version="1.0" encoding="utf-8"?>
<!-- Generator: Adobe Illustrator 18.0.0, SVG Export Plug-In . SVG Version: 6.00 Build 0)  -->
<!DOCTYPE svg PUBLIC "-//W3C//DTD SVG 1.1//EN" "http://www.w3.org/Graphics/SVG/1.1/DTD/svg11.dtd">
<svg version="1.1" id="Capa_1" xmlns="http://www.w3.org/2000/svg" xmlns:xlink="http://www.w3.org/1999/xlink" x="0px" y="0px"
	 viewBox="0 0 612 792" enable-background="new 0 0 612 792" xml:space="preserve">
<g>
	<g>
		<g>
			<path fill="#FFFFFF" d="M603.4,220.1h-1c0-35.4-27.7-63.1-63.1-63.1H72.7c-35.4,0-63.1,27.7-63.1,63.1v294.5
				c0,35.4,27.7,63.1,63.1,63.1h169.3l-14.3,66.9h-65c-5.7,0-9.6,3.8-9.6,9.6v38.2c0,5.7,3.8,9.6,9.6,9.6h286.9
				c5.7,0,9.6-3.8,9.6-9.6v-38.2c0-5.7-3.8-9.6-9.6-9.6h-64.1L371,577.7h169.3c34.4,0,63.1-27.7,63.1-63.1V220.1z M439.9,663.8v19.1
				H172.1v-19.1H439.9z M246.7,644.6l14.3-66.9h89.9l14.3,66.9H246.7z M583.3,514.6c0,23.9-20.1,44-44,44H72.7
				c-23.9,0-44-20.1-44-44v-32.5h554.6V514.6z M583.3,462.9H28.7V220.1c0-23.9,20.1-44,44-44h466.6c23.9,0,44,20.1,44,44
				L583.3,462.9L583.3,462.9z"/>
			<circle fill="#FFFFFF" cx="306" cy="520.3" r="19.1"/>
			<rect x="449.4" y="214.3" fill="#FFFFFF" width="19.1" height="19.1"/>
			<rect x="487.7" y="214.3" fill="#FFFFFF" width="19.1" height="19.1"/>
			<rect x="525.9" y="214.3" fill="#FFFFFF" width="19.1" height="19.1"/>
			<rect x="487.7" y="252.6" fill="#FFFFFF" width="19.1" height="19.1"/>
			<rect x="525.9" y="252.6" fill="#FFFFFF" width="19.1" height="19.1"/>
			<rect x="353.8" y="405.6" fill="#FFFFFF" width="191.2" height="19.1"/>
			<rect x="382.5" y="367.3" fill="#FFFFFF" width="162.6" height="19.1"/>
			<rect x="411.2" y="329.1" fill="#FFFFFF" width="133.9" height="19.1"/>
			<rect x="525.9" y="290.8" fill="#FFFFFF" width="19.1" height="19.1"/>
			<path fill="#FFFFFF" d="M310.8,291.8c-2.9-1.9-6.7-1.9-9.6,0l-43,22v-13.4c0-5.7-3.8-9.6-9.6-9.6h-48.8c1-2.9,1-6.7,1-9.6
				c0-37.3-29.6-66.9-66.9-66.9S66.9,244,66.9,281.2c0,33.5,24.9,61.2,57.4,66v67.9c0,5.7,3.8,9.6,9.6,9.6h114.8
				c5.7,0,9.6-3.8,9.6-9.6v-13.4l43,22c1.9,1,2.9,1,4.8,1c5.7,0,9.6-3.8,9.6-9.6V300.4C315.6,297.5,313.6,293.7,310.8,291.8z
				 M124.3,300.4v27.7c-25.8-4.8-43-30.6-37.3-56.4c4.8-22,23.9-38.2,46.9-38.2c26.8,0,47.8,21,47.8,47.8c0,2.9,0,6.7-1,9.6h-46.9
				C128.1,290.8,124.3,294.6,124.3,300.4z M172.1,309.9c-6.7,9.6-17.2,16.3-28.7,18.2v-18.2H172.1z M239.1,371.1l-26.8-13.4
				l26.8-13.4V371.1z M239.1,323.3l-52.6,25.8c-2.9,1.9-4.8,4.8-4.8,8.6s1.9,6.7,4.8,8.6l52.6,25.8v13.4h-95.6v-58.3
				c22-2.9,41.1-17.2,50.7-37.3h44.9V323.3z M296.4,399.8l-38.2-19.1v-45.9l38.2-19.1V399.8z"/>
		</g>
	</g>
</g>
</svg>
