<?xml version="1.0" encoding="utf-8"?>
<!-- Generator: Adobe Illustrator 18.0.0, SVG Export Plug-In . SVG Version: 6.00 Build 0)  -->
<!DOCTYPE svg PUBLIC "-//W3C//DTD SVG 1.1//EN" "http://www.w3.org/Graphics/SVG/1.1/DTD/svg11.dtd">
<svg version="1.1" id="Capa_1" xmlns="http://www.w3.org/2000/svg" xmlns:xlink="http://www.w3.org/1999/xlink" x="0px" y="0px"
	 viewBox="0 0 612 792" enable-background="new 0 0 612 792" xml:space="preserve">
<g>
	<g>
		<g>
			<path fill="#FFFFFF" d="M608.6,654.4L468.7,363.2l-37.1-77.1c-1.9-4.8-7.6-6.7-12.4-4.8l-68.5,33.3c-4.8,1.9-6.7,7.6-4.8,12.4
				l177,369.3c1.9,2.9,4.8,5.7,8.6,5.7c1,0,2.9,0,3.8-1l68.5-33.3C608.6,664.9,611.4,659.2,608.6,654.4z M367.8,327l51.4-24.7
				l12.4,25.7l-51.4,24.7L367.8,327z M387.8,369.8l51.4-24.7l8.6,17.1L396.3,387L387.8,369.8z M536.2,679.2L403.9,404.1l51.4-24.7
				l131.3,275.1L536.2,679.2z"/>
			<path fill="#FFFFFF" d="M87.9,147.1H11.8c-5.7,0-9.5,3.8-9.5,9.5v533c0,5.7,3.8,9.5,9.5,9.5h76.1c5.7,0,9.5-3.8,9.5-9.5v-533
				C97.5,150.9,93.7,147.1,87.9,147.1z M78.4,680.1H21.3v-28.6h57.1V680.1z M78.4,632.5H21.3v-19h57.1V632.5z M78.4,594.4H21.3
				V166.1h57.1V594.4z"/>
			<path fill="#FFFFFF" d="M202.2,270.8H126c-5.7,0-9.5,3.8-9.5,9.5v409.3c0,5.7,3.8,9.5,9.5,9.5h76.1c5.7,0,9.5-3.8,9.5-9.5V280.4
				C211.7,274.6,207.9,270.8,202.2,270.8z M192.6,680.1h-57.1v-28.6h57.1V680.1z M192.6,632.5h-57.1v-19h57.1V632.5z M192.6,594.4
				h-57.1V375.5h57.1V594.4z M192.6,356.5h-57.1v-19h57.1V356.5z M192.6,318.4h-57.1v-28.6h57.1V318.4z"/>
			<path fill="#FFFFFF" d="M316.4,204.2h-76.1c-5.7,0-9.5,3.8-9.5,9.5v475.9c0,5.7,3.8,9.5,9.5,9.5h76.1c5.7,0,9.5-3.8,9.5-9.5
				V213.7C325.9,208,322.1,204.2,316.4,204.2z M306.9,680.1h-57.1v-28.6h57.1V680.1z M306.9,632.5h-57.1V270.8h57.1V632.5z
				 M306.9,251.8h-57.1v-28.6h57.1V251.8z"/>
			<path fill="#FFFFFF" d="M411.6,518.3h-57.1c-5.7,0-9.5,3.8-9.5,9.5v161.8c0,5.7,3.8,9.5,9.5,9.5h57.1c5.7,0,9.5-3.8,9.5-9.5
				V527.8C421.1,522.1,417.3,518.3,411.6,518.3z M402,680.1H364V623H402V680.1z M402,604H364v-19H402V604z M402,565.9H364v-28.6H402
				V565.9z"/>
			<rect x="40.4" y="185.2" fill="#FFFFFF" width="19" height="19"/>
			<rect x="268.8" y="289.9" fill="#FFFFFF" width="19" height="19"/>
		</g>
	</g>
</g>
</svg>
