<?xml version="1.0" encoding="utf-8"?>
<!-- Generator: Adobe Illustrator 18.0.0, SVG Export Plug-In . SVG Version: 6.00 Build 0)  -->
<!DOCTYPE svg PUBLIC "-//W3C//DTD SVG 1.1//EN" "http://www.w3.org/Graphics/SVG/1.1/DTD/svg11.dtd">
<svg version="1.1" id="Capa_1" xmlns="http://www.w3.org/2000/svg" xmlns:xlink="http://www.w3.org/1999/xlink" x="0px" y="0px"
	 viewBox="0 0 612 792" enable-background="new 0 0 612 792" xml:space="preserve">
<g>
	<g>
		<path fill="#FFFFFF" d="M520.2,400.8c-14.3-10.5-30.6-20.1-47.8-26.8c13.4-92.8-51.6-177.9-144.4-191.3
			c-92.8-13.4-177.9,51.6-191.2,144.4c-1,7.6-1.9,15.3-1.9,23.9c0,8.6,1,16.3,1.9,23.9c-87,34.4-130.1,132-95.6,219
			s132,130,219,95.6c16.3-6.7,31.6-15.3,45.9-26.8c72.7,59.3,178.8,47.8,238.1-23.9S591.9,460.1,520.2,400.8z M305,200.9
			c83.2,0,150.1,66.9,150.1,150.1c0,5.7,0,11.5-1,17.2c-51.6-13.4-106.1-1-147.3,33.5c-30.6-24.9-67.9-38.2-107.1-38.2
			c-14.3,0-29.6,1.9-43,5.7c-1-5.7-1.9-11.5-1.9-18.2C154.9,267.9,221.9,200.9,305,200.9z M307,427.6c18.2,19.1,31.6,42.1,38.2,67.9
			c-13.4,3.8-26.8,5.7-40.2,5.7c-12.4,0-24.9-1.9-36.3-4.8C275.4,470.6,288.8,446.7,307,427.6z M250.5,490.7
			c-44.9-17.2-78.4-55.5-90.8-102.3c13.4-3.8,25.8-5.7,39.2-5.7c33.5,0,66.9,11.5,92.8,32.5C272.5,436.2,258.2,462,250.5,490.7z
			 M321.3,415.1c26.8-21,59.3-32.5,92.8-32.5c12.4,0,24.9,1.9,36.3,4.8c-11.5,45.9-44,84.1-87,102.3
			C355.7,462,341.4,436.2,321.3,415.1z M82.2,625.5c-21-25.8-32.5-58.3-32.5-92.8c0-60.2,36.3-114.7,91.8-138.7
			c14.3,53.5,53.6,96.6,105.2,114.8c-7.6,51.6,9.6,103.3,45.9,140.6C227.6,701,133.9,689.6,82.2,625.5z M264.9,515.5
			c13.4,2.9,26.8,4.8,40.2,4.8c14.3,0,28.7-1.9,43-5.7c1,6.7,1.9,12.4,1.9,18.2c0,39.2-15.3,77.5-43,105.2
			C275.4,605.4,259.1,560.5,264.9,515.5z M553.7,587.2c-23,57.4-77.5,95.6-139.6,95.6c-33.5,0-66.9-11.5-92.8-32.5
			c36.3-37.3,53.5-89.9,45.9-141.5c50.7-20.1,88-63.1,101.4-114.8C546,423.7,583.3,510.8,553.7,587.2z"/>
		<rect x="257.2" y="253.5" fill="#FFFFFF" width="19.1" height="19.1"/>
		<rect x="295.5" y="253.5" fill="#FFFFFF" width="19.1" height="19.1"/>
		<rect x="333.7" y="253.5" fill="#FFFFFF" width="19.1" height="19.1"/>
		<rect x="257.2" y="291.8" fill="#FFFFFF" width="19.1" height="19.1"/>
		<rect x="295.5" y="291.8" fill="#FFFFFF" width="19.1" height="19.1"/>
		<rect x="333.7" y="291.8" fill="#FFFFFF" width="19.1" height="19.1"/>
		<rect x="257.2" y="330" fill="#FFFFFF" width="19.1" height="19.1"/>
		<rect x="295.5" y="330" fill="#FFFFFF" width="19.1" height="19.1"/>
		<rect x="333.7" y="330" fill="#FFFFFF" width="19.1" height="19.1"/>
		<rect x="408.3" y="510.8" fill="#FFFFFF" width="19.1" height="19.1"/>
		<rect x="446.6" y="510.8" fill="#FFFFFF" width="19.1" height="19.1"/>
		<rect x="484.8" y="510.8" fill="#FFFFFF" width="19.1" height="19.1"/>
		<rect x="408.3" y="549" fill="#FFFFFF" width="19.1" height="19.1"/>
		<rect x="446.6" y="549" fill="#FFFFFF" width="19.1" height="19.1"/>
		<rect x="484.8" y="549" fill="#FFFFFF" width="19.1" height="19.1"/>
		<rect x="408.3" y="587.2" fill="#FFFFFF" width="19.1" height="19.1"/>
		<rect x="446.6" y="587.2" fill="#FFFFFF" width="19.1" height="19.1"/>
		<rect x="484.8" y="587.2" fill="#FFFFFF" width="19.1" height="19.1"/>
		<rect x="111.9" y="510.8" fill="#FFFFFF" width="19.1" height="19.1"/>
		<rect x="150.1" y="510.8" fill="#FFFFFF" width="19.1" height="19.1"/>
		<rect x="188.4" y="510.8" fill="#FFFFFF" width="19.1" height="19.1"/>
		<rect x="111.9" y="549" fill="#FFFFFF" width="19.1" height="19.1"/>
		<rect x="150.1" y="549" fill="#FFFFFF" width="19.1" height="19.1"/>
		<rect x="188.4" y="549" fill="#FFFFFF" width="19.1" height="19.1"/>
		<rect x="111.9" y="587.2" fill="#FFFFFF" width="19.1" height="19.1"/>
		<rect x="150.1" y="587.2" fill="#FFFFFF" width="19.1" height="19.1"/>
		<rect x="188.4" y="587.2" fill="#FFFFFF" width="19.1" height="19.1"/>
	</g>
</g>
</svg>
